<svg width="96" height="96" viewBox="0 0 96 96" fill="none" xmlns="http://www.w3.org/2000/svg">
<path d="M65.3125 67.376L79.9913 82.0548" stroke="#1D1D1F" stroke-width="6" stroke-linecap="round" stroke-linejoin="round"/>
<path d="M45.3576 16C51.164 16 56.84 17.7218 61.668 20.9476C66.4956 24.1735 70.2584 28.7585 72.4804 34.1229C74.7024 39.4873 75.284 45.39 74.1512 51.0848C73.0184 56.7796 70.2224 62.0104 66.1164 66.1164C62.0104 70.2224 56.7796 73.0184 51.0848 74.1512C45.39 75.284 39.4873 74.7024 34.1229 72.4804C28.7585 70.2584 24.1735 66.4956 20.9476 61.668C17.7218 56.84 16 51.164 16 45.3576C16 37.5714 19.093 30.1042 24.5986 24.5986C30.1042 19.093 37.5714 16 45.3576 16Z" stroke="#1D1D1F" stroke-width="6" stroke-linecap="round"/>
</svg>
