<svg width="96" height="96" viewBox="0 0 96 96" fill="none" xmlns="http://www.w3.org/2000/svg">
<path d="M68.5196 18.8008C74.0308 18.8008 78.1228 20.8766 80.8672 23.9883C83.6508 27.1446 85.1912 31.5364 85.1916 36.3242V36.6367C85.1112 42.4092 82.8036 48.5896 77.9532 53.4884C74.2452 57.2348 66.46 65.0744 59.504 72.0548C56.0256 75.5452 52.756 78.8192 50.3084 81.258C49.4232 82.14 48.6428 82.9072 48.004 83.5392C47.3652 82.9076 46.5876 82.1392 45.7032 81.258C43.2548 78.8188 39.9861 75.5416 36.5078 72.0508C29.5516 65.0696 21.7667 57.2312 18.0625 53.4884L17.1641 52.5352C12.8289 47.7044 10.8008 41.8108 10.8008 36.3242C10.8011 31.5336 12.3424 27.1401 15.1289 23.9843C17.8764 20.8729 21.9725 18.8008 27.4805 18.8008C30.8363 18.8008 34.3642 19.9711 37.6836 21.7773C40.9872 23.5751 43.9164 25.9125 46.0196 28.0156L48 29.9922L49.9764 28.0156C52.0848 25.911 55.0176 23.5751 58.3204 21.7773C61.6388 19.9713 65.164 18.8008 68.5196 18.8008Z" stroke="#1D1D1F" stroke-width="5.6"/>
</svg>
